<svg width="3658" height="724" viewBox="0 0 3658 724" fill="none" xmlns="http://www.w3.org/2000/svg">
<path d="M250.95 55H1691.95L1518 659H77L250.95 55Z" fill="black"/>
<path d="M1691.95 55L3574 55L3400.05 659H1518L1691.95 55Z" fill="white"/>
<path d="M250.95 50.5H247.563L246.626 53.7546L72.6758 657.755L71.0211 663.5H77H1518H3400.05H3403.44L3404.37 660.245L3578.32 56.2454L3579.98 50.5H3574H1691.95H250.95Z" stroke="black" stroke-width="9"/>
<path d="M233.014 536.339L306.038 139.059L554.111 148.585L539.553 226.558L379.317 220.405L364.648 301.89L509.091 307.437L494.528 385.605L350.084 380.059L320.851 539.712L233.014 536.339Z" fill="white"/>
<path d="M593.916 544.336C576.644 543.673 561.84 539.913 549.502 533.058C537.288 526.077 528.49 515.907 523.111 502.546C517.85 489.191 517.01 472.749 520.591 453.221C523.723 436.671 528.958 422.871 536.297 411.823C543.758 400.648 552.749 391.682 563.268 384.923C573.905 378.168 585.672 373.15 598.568 369.868C611.465 366.587 624.913 364.564 638.913 363.799C654.579 362.837 667.29 361.632 677.049 360.184C686.925 358.74 694.34 356.485 699.294 353.419C704.252 350.224 707.358 345.654 708.612 339.712L708.643 338.736C710.381 328.775 708.675 320.96 703.525 315.292C698.375 309.625 690.477 306.587 679.83 306.178C668.473 305.742 658.686 308.101 650.468 313.255C642.25 318.41 636.391 325.738 632.891 335.241L553.494 329.067C559.041 311.047 568.074 295.114 580.595 281.269C593.12 267.294 608.8 256.566 627.633 249.084C646.588 241.477 668.31 238.143 692.798 239.083C710.07 239.747 725.613 242.623 739.428 247.711C753.247 252.67 764.811 259.626 774.12 268.579C783.552 277.406 790.142 288.078 793.89 300.594C797.638 313.111 798.077 327.258 795.207 343.037L757.685 545.545L676.058 542.411L683.772 500.901L681.643 500.819C674.933 510.72 667.148 519.017 658.289 525.709C649.549 532.406 639.799 537.307 629.041 540.41C618.282 543.513 606.574 544.822 593.916 544.336ZM632.453 483.302C641.562 483.652 650.264 481.903 658.559 478.054C666.854 474.204 673.897 468.745 679.688 461.674C685.602 454.477 689.483 446.031 691.331 436.334L696.317 408.004C693.787 409.339 690.611 410.52 686.788 411.545C682.965 412.57 678.908 413.522 674.616 414.399C670.328 415.146 665.922 415.888 661.398 416.626C656.996 417.239 652.774 417.793 648.731 418.289C640.168 419.392 632.704 421.32 626.339 424.071C619.975 426.822 614.823 430.531 610.884 435.199C607.068 439.741 604.643 445.248 603.609 451.72C601.879 461.421 603.71 469.045 609.1 474.592C614.495 480.008 622.279 482.912 632.453 483.302Z" fill="white"/>
<path d="M1011.68 244.294L998.624 314.12L826.676 307.517L839.732 237.691L1011.68 244.294ZM888.681 167.681L975.453 171.013L924.77 446.664C923.756 452.485 923.723 457.238 924.672 460.921C925.744 464.478 927.793 467.097 930.819 468.776C933.968 470.329 937.849 471.195 942.462 471.372C945.657 471.494 949.218 471.24 953.147 470.61C957.075 469.979 960.051 469.507 962.075 469.194L962.726 538.179C958.067 539.433 951.805 540.82 943.939 542.342C936.188 543.998 927.158 544.888 916.85 545.013C896 545.124 878.872 541.797 865.466 535.031C852.182 528.139 842.973 517.888 837.839 504.276C832.822 490.669 832.291 473.848 836.243 453.814L888.681 167.681Z" fill="white"/>
<path d="M1120.4 546.863C1091.89 545.768 1068.42 538.681 1050.01 525.602C1031.71 512.397 1019.14 494.137 1012.3 470.823C1005.47 447.378 1004.98 419.815 1010.84 388.132C1016.56 357.355 1027.06 330.669 1042.35 308.074C1057.76 285.354 1076.78 267.982 1099.43 255.958C1122.09 243.804 1147.08 238.252 1174.4 239.302C1193.8 240.046 1210.91 244.024 1225.73 251.235C1240.54 258.446 1252.65 268.809 1262.05 282.324C1271.45 295.708 1277.63 311.964 1280.57 331.092C1283.52 350.219 1282.71 372.003 1278.14 396.442L1274.02 420.117L1037.3 411.027L1047.05 355.921L1203.2 361.917C1204.94 351.826 1204.46 342.756 1201.75 334.707C1199.05 326.659 1194.45 320.297 1187.97 315.62C1181.61 310.817 1173.7 308.234 1164.23 307.871C1154.65 307.503 1145.58 309.629 1137.02 314.249C1128.59 318.744 1121.34 324.978 1115.29 332.95C1109.23 340.922 1105.15 350.013 1103.05 360.22L1091.84 416.638C1089.55 429.183 1089.74 440 1092.41 449.089C1095.08 458.177 1099.95 465.267 1107.01 470.357C1114.08 475.317 1123.29 478.015 1134.65 478.451C1142.22 478.741 1149.36 477.908 1156.05 475.951C1162.75 473.864 1168.77 470.644 1174.12 466.292C1179.6 461.813 1184.09 456.321 1187.62 449.814L1266.68 455.389C1259.67 474.786 1249.25 491.511 1235.41 505.567C1221.59 519.492 1204.91 530.117 1185.37 537.441C1165.95 544.64 1144.29 547.781 1120.4 546.863Z" fill="white"/>
<path d="M1414.15 546.856C1385.4 545.753 1361.89 538.338 1343.61 524.613C1325.45 510.892 1313.01 492.311 1306.3 468.872C1299.58 445.302 1299.08 418.323 1304.78 387.937C1310.25 357.411 1320.63 330.851 1335.91 308.256C1351.2 285.531 1370.35 268.098 1393.36 255.958C1416.37 243.818 1442.13 238.296 1470.64 239.39C1495.84 240.358 1516.85 246.179 1533.69 256.853C1550.64 267.533 1562.67 282.19 1569.78 300.826C1577.01 319.337 1578.64 340.823 1574.66 365.285L1493.57 362.171C1494.76 346.979 1492.3 334.903 1486.19 325.943C1480.08 316.852 1470.94 312.073 1458.75 311.605C1448.46 311.21 1438.9 313.969 1430.06 319.881C1421.35 325.667 1413.79 334.493 1407.37 346.359C1401.07 358.099 1396.34 372.764 1393.18 390.355C1390.02 407.945 1389.36 422.897 1391.22 435.211C1393.2 447.399 1397.35 456.739 1403.66 463.233C1410.09 469.601 1418.39 472.98 1428.56 473.371C1436.61 473.68 1444.12 472.08 1451.1 468.571C1458.08 465.062 1464.23 459.763 1469.55 452.675C1474.87 445.455 1479.12 436.632 1482.3 426.205L1563.21 429.312C1557.81 453.98 1548.19 475.294 1534.35 493.257C1520.64 511.093 1503.56 524.764 1483.13 534.267C1462.69 543.641 1439.7 547.838 1414.15 546.856Z" fill="white"/>
<path d="M1745.38 370.865L1714.05 540.792L1627.28 537.46L1682.22 239.506L1764.73 242.675L1754.82 297.384L1757.84 297.5C1766.94 279.486 1779.76 265.587 1796.3 255.803C1812.84 245.889 1831.22 241.321 1851.45 242.097C1870.5 242.829 1886.26 248.123 1898.74 257.979C1911.22 267.835 1919.85 281.32 1924.64 298.434C1929.43 315.419 1929.69 335.16 1925.42 357.657L1890.25 547.557L1803.48 544.226L1835.04 372.94C1838.17 356.52 1836.74 343.507 1830.77 333.901C1824.92 324.169 1815.02 319.035 1801.06 318.499C1791.95 318.149 1783.54 320.04 1775.83 324.172C1768.24 328.179 1761.77 334.117 1756.43 341.986C1751.2 349.86 1747.52 359.486 1745.38 370.865Z" fill="black"/>
<path d="M2062.53 547.976C2033.79 546.872 2010.27 539.457 1992 525.732C1973.84 512.011 1961.34 493.363 1954.51 469.789C1947.68 446.214 1947.06 419.101 1952.65 388.45C1958.24 357.929 1968.62 331.369 1983.79 308.77C1998.95 286.17 2017.98 268.863 2040.87 256.848C2063.75 244.834 2089.45 239.374 2117.96 240.469C2146.59 241.568 2169.98 248.978 2188.14 262.699C2206.42 276.424 2218.98 295.074 2225.81 318.649C2232.76 342.228 2233.43 369.408 2227.84 400.189C2222.25 430.71 2211.81 457.268 2196.52 479.863C2181.24 502.328 2162.22 519.57 2139.45 531.589C2116.68 543.608 2091.04 549.07 2062.53 547.976ZM2074.58 476.353C2085.23 476.762 2094.86 473.615 2103.48 466.914C2112.22 460.216 2119.69 450.67 2125.89 438.276C2132.09 425.881 2136.69 411.406 2139.71 394.851C2142.71 378.557 2143.4 364.193 2141.79 351.758C2140.29 339.198 2136.58 329.353 2130.64 322.223C2124.71 314.962 2116.49 311.13 2105.96 310.726C2095.31 310.317 2085.61 313.526 2076.87 320.353C2068.13 327.05 2060.66 336.596 2054.46 348.991C2048.39 361.261 2043.84 375.738 2040.82 392.422C2037.82 408.716 2037.07 423.079 2038.57 435.509C2040.07 447.939 2043.84 457.786 2049.89 465.051C2055.94 472.186 2064.17 475.953 2074.58 476.353Z" fill="black"/>
<path d="M2397.38 143.491L2324.36 540.771L2237.59 537.439L2310.61 140.159L2397.38 143.491Z" fill="black"/>
<path d="M2499.49 547.976C2470.74 546.872 2447.23 539.457 2428.95 525.732C2410.79 512.011 2398.29 493.363 2391.46 469.789C2384.63 446.214 2384.01 419.101 2389.6 388.45C2395.19 357.929 2405.57 331.369 2420.74 308.77C2435.91 286.17 2454.93 268.863 2477.82 256.848C2500.7 244.834 2526.4 239.374 2554.91 240.469C2583.54 241.568 2606.94 248.978 2625.1 262.699C2643.37 276.424 2655.93 295.074 2662.76 318.649C2669.71 342.228 2670.39 369.408 2664.79 400.189C2659.2 430.71 2648.76 457.268 2633.48 479.863C2618.2 502.328 2599.17 519.57 2576.4 531.589C2553.64 543.608 2528 549.07 2499.49 547.976ZM2511.53 476.353C2522.18 476.762 2531.81 473.615 2540.44 466.914C2549.18 460.216 2556.65 450.67 2562.84 438.276C2569.04 425.881 2573.65 411.406 2576.66 394.851C2579.66 378.557 2580.36 364.193 2578.74 351.758C2577.24 339.198 2573.53 329.353 2567.6 322.223C2561.67 314.962 2553.44 311.13 2542.91 310.726C2532.26 310.317 2522.57 313.526 2513.82 320.353C2505.08 327.05 2497.61 336.596 2491.42 348.991C2485.34 361.261 2480.79 375.738 2477.78 392.422C2474.77 408.716 2474.02 423.079 2475.52 435.509C2477.02 447.939 2480.79 457.786 2486.84 465.051C2492.89 472.186 2501.12 475.953 2511.53 476.353Z" fill="black"/>
<path d="M2780.79 660.294C2754.76 659.295 2733.24 654.496 2716.22 645.898C2699.2 637.3 2686.65 625.944 2678.57 611.828C2670.49 597.713 2666.91 581.947 2667.82 564.531L2751.02 562.646C2751.54 568.917 2753.43 574.395 2756.72 579.079C2760.01 583.764 2764.81 587.399 2771.12 589.986C2777.43 592.703 2785.32 594.243 2794.78 594.606C2809.33 595.165 2822.11 591.749 2833.13 584.357C2844.14 576.966 2851.19 563.758 2854.28 544.732L2863.94 492.357L2860.92 492.241C2855.9 501.295 2849.25 509.31 2840.97 516.285C2832.7 523.26 2822.99 528.618 2811.86 532.358C2800.72 536.098 2788.47 537.712 2775.11 537.198C2755.11 536.431 2737.83 530.688 2723.24 519.969C2708.66 509.121 2698.4 492.838 2692.46 471.121C2686.52 449.274 2686.63 421.473 2692.8 387.718C2699.23 352.932 2709.61 324.483 2723.93 302.372C2738.26 280.131 2754.65 263.895 2773.1 253.663C2791.66 243.436 2810.47 238.688 2829.51 239.42C2843.83 239.969 2855.57 243.155 2864.74 248.977C2873.92 254.669 2881.03 261.845 2886.09 270.504C2891.14 279.164 2894.65 288.089 2896.61 297.281L2899.09 297.377L2908.35 246.354L2994.77 249.672L2939.79 548.796C2935.31 574.151 2925.7 595.27 2910.95 612.156C2896.2 629.041 2877.62 641.546 2855.21 649.672C2832.81 657.798 2808 661.339 2780.79 660.294ZM2817.42 469.277C2827.94 469.681 2837.56 466.99 2846.28 461.204C2854.99 455.417 2862.42 446.912 2868.58 435.687C2874.74 424.463 2879.26 410.897 2882.14 394.988C2885.02 378.819 2885.46 364.836 2883.47 353.038C2881.6 341.115 2877.51 331.842 2871.2 325.218C2864.9 318.594 2856.42 315.078 2845.78 314.669C2835.01 314.256 2825.33 317.14 2816.72 323.321C2808.23 329.507 2800.96 338.41 2794.91 350.029C2788.98 361.522 2784.63 375.225 2781.88 391.139C2779 407.047 2778.39 420.763 2780.04 432.287C2781.8 443.816 2785.78 452.76 2791.98 459.119C2798.29 465.482 2806.77 468.868 2817.42 469.277Z" fill="black"/>
<path d="M2987.46 537.439L3042.4 239.486L3129.17 242.818L3074.23 540.771L2987.46 537.439ZM3093.03 206.266C3080.72 205.794 3070.87 200.922 3063.46 191.652C3056.06 182.381 3053.38 171.534 3055.44 159.11C3057.49 146.556 3063.63 136.047 3073.85 127.584C3084.07 119.12 3095.27 115.122 3107.45 115.59C3119.76 116.063 3129.49 120.864 3136.67 129.996C3143.96 139.132 3146.57 149.977 3144.52 162.531C3142.7 174.963 3136.68 185.477 3126.46 194.071C3116.35 202.669 3105.21 206.734 3093.03 206.266Z" fill="black"/>
<path d="M3198.45 545.435C3181.18 544.772 3166.37 541.013 3154.04 534.157C3141.82 527.176 3133.02 517.006 3127.64 503.645C3122.38 490.29 3121.54 473.848 3125.12 454.32C3128.26 437.77 3133.49 423.97 3140.83 412.922C3148.29 401.747 3157.28 392.781 3167.8 386.022C3178.44 379.267 3190.21 374.249 3203.1 370.968C3216 367.686 3229.45 365.663 3243.45 364.898C3259.11 363.937 3271.82 362.732 3281.58 361.283C3291.46 359.839 3298.87 357.584 3303.83 354.518C3308.78 351.323 3311.89 346.753 3313.15 340.811L3313.18 339.835C3314.91 329.874 3313.21 322.059 3308.06 316.392C3302.91 310.724 3295.01 307.686 3284.36 307.277C3273.01 306.841 3263.22 309.2 3255 314.354C3246.78 319.509 3240.92 326.837 3237.42 336.34L3158.03 330.166C3163.57 312.146 3172.61 296.214 3185.13 282.368C3197.65 268.393 3213.33 257.665 3232.17 250.183C3251.12 242.576 3272.84 239.242 3297.33 240.183C3314.6 240.846 3330.15 243.722 3343.96 248.81C3357.78 253.769 3369.34 260.725 3378.65 269.678C3388.09 278.505 3394.68 289.177 3398.42 301.693C3402.17 314.21 3402.61 328.357 3399.74 344.136L3362.22 546.644L3280.59 543.51L3288.31 502L3286.18 501.919C3279.47 511.819 3271.68 520.116 3262.82 526.809C3254.08 533.506 3244.33 538.406 3233.57 541.509C3222.82 544.612 3211.11 545.921 3198.45 545.435ZM3236.99 484.402C3246.1 484.751 3254.8 483.002 3263.09 479.153C3271.39 475.304 3278.43 469.844 3284.22 462.773C3290.14 455.576 3294.02 447.13 3295.86 437.433L3300.85 409.103C3298.32 410.439 3295.14 411.619 3291.32 412.644C3287.5 413.67 3283.44 414.621 3279.15 415.498C3274.86 416.245 3270.46 416.987 3265.93 417.725C3261.53 418.338 3257.31 418.892 3253.26 419.388C3244.7 420.492 3237.24 422.419 3230.87 425.17C3224.51 427.921 3219.36 431.63 3215.42 436.298C3211.6 440.84 3209.18 446.347 3208.14 452.819C3206.41 462.52 3208.24 470.144 3213.63 475.691C3219.03 481.107 3226.81 484.011 3236.99 484.402Z" fill="black"/>
</svg>
