<svg width="279" height="269" viewBox="0 0 279 269" fill="none" xmlns="http://www.w3.org/2000/svg">
<path d="M131.5 14.9C128.2 16.5 110.9 26.3 93 36.7C66.1 52.3 60.4 56 59.6 58.3C57.6 63.8 59.3 65.1 98.5 87.7C131.6 106.7 136 109 140 109C144 109 147.2 107.5 167.5 95.7C180.2 88.4 193.1 80.9 196.3 79.1L202 75.9V111.7V147.5L173.7 164C136.9 185.5 143 185.3 109 165.6C95 157.5 82.4 149.8 81 148.4C78.5 146 78.5 145.9 78 122.7L77.5 99.5L67 93.3C61.2 89.8 55.7 87 54.8 87C51.3 87 51 90.3 51 124.5C51 151 51.3 158.7 52.4 161.3C53.6 164.1 59.2 167.6 94.6 188C131.4 209.1 136 211.5 140 211.5C144 211.5 148.6 209.2 184 188.9C205.7 176.4 224.6 165.3 226 164.2L228.5 162.2L228.8 113.3C228.9 75.8 228.7 63.9 227.8 62.1C226.5 59.6 204.8 46.1 202 46C201.1 46 189.9 52.1 177 59.6C138.2 82.1 141.7 81.4 122.9 70.8C110.1 63.7 107.6 61.3 110 58.5C110.7 57.7 114.6 55.1 118.8 52.7C137.4 42 139.9 41.4 148.2 45.5C150.9 46.9 153.8 48 154.6 48C156.3 48 174.7 37.7 176.9 35.5C179.2 33.2 177.5 31.4 167.5 25.6C150.3 15.4 143.6 12 140.5 12C138.9 12 134.8 13.3 131.5 14.9Z" fill="white"/>
<path d="M7 34.2C5.1 37.4 5 39.5 5 111.5C5 183.2 5.1 185.6 7 188.7C8 190.5 10.6 193 12.7 194.4C26.2 203.1 135.3 265 138.1 265.5C140.4 265.9 142.9 265.6 145.1 264.7C147 263.9 170.3 250.7 197 235.3C223.7 219.9 249.8 204.9 255 202C266.7 195.6 270.6 192.7 273.1 188.6C274.9 185.7 275 183.2 275 153.3C275 122 274.9 121.1 273 120.5C270.2 119.6 249.4 131.5 248.6 134.4C248.3 135.6 248 144.1 248 153.3C248 170.8 247.5 173.5 243.4 177.2C242.3 178.1 219.9 191.3 193.5 206.6C142.1 236.3 140.7 236.9 133.9 233.5C121.1 227 38 178.2 35.8 175.9C34.3 174.4 32.6 171.4 32.1 169.3C30.7 164.3 30.6 58.9 32 53.9C33.4 49.1 36.6 46.3 50 38.5C56.3 34.8 61.7 31.6 61.9 31.4C62.1 31.2 50.3 31 35.7 31H9L7 34.2Z" fill="white"/>
<path d="M228.5 37.4C234.6 40.8 241.3 45.3 243.5 47.3L247.5 50.9L248 77.7C248.3 92.4 248.9 105.1 249.3 105.7C250.8 108 253.3 107.1 264 100.7L274.5 94.5L274.8 66C275 39.1 274.9 37.3 273 34.2L271 31H244.3H217.5L228.5 37.4Z" fill="white"/>
</svg>
